<?xml version="1.0" encoding="UTF-8" standalone="no"?><!DOCTYPE svg PUBLIC "-//W3C//DTD SVG 1.1//EN" "http://www.w3.org/Graphics/SVG/1.1/DTD/svg11.dtd"><!-- Generated by graphviz version 2.40.1 (20161225.0304)
 --><!-- Title: G Pages: 1 --><svg xmlns="http://www.w3.org/2000/svg" xmlns:xlink="http://www.w3.org/1999/xlink" width="692pt" height="317pt" viewBox="0.00 0.00 692.00 317.14">
<g id="graph" class="graph" transform="scale(1 1) rotate(0) translate(4 313.1361)">
<title>G</title>
<polygon style="fill:var(--bg)" stroke="transparent" points="-4,4 -4,-313.1361 688,-313.1361 688,4 -4,4"/>
<!-- 3 -->
<g id="node1" class="node">
<title>3</title>
<ellipse fill="none" style="stroke:var(--fg)" cx="117" cy="-235" rx="27" ry="18"/>
<text text-anchor="middle" x="117" y="-230.8" font-family="Times,serif" font-size="14.00" style="fill:var(--fg)">3</text>
</g>
<!-- 8 -->
<g id="node2" class="node">
<title>8</title>
<ellipse fill="none" style="stroke:var(--fg)" cx="477" cy="-240" rx="27" ry="18"/>
<text text-anchor="middle" x="477" y="-235.8" font-family="Times,serif" font-size="14.00" style="fill:var(--fg)">8</text>
</g>
<!-- 3&#45;&gt;8 -->
<g id="edge1" class="edge">
<title>3-&gt;8</title>
<path fill="none" style="stroke:var(--fg)" d="M144.0585,-235.3758C207.6473,-236.259 366.7069,-238.4682 439.5304,-239.4796"/>
<polygon style="fill:var(--fg); stroke:var(--fg)" points="439.5798,-242.9805 449.6275,-239.6198 439.6771,-235.9812 439.5798,-242.9805"/>
</g>
<!-- 6 -->
<g id="node3" class="node">
<title>6</title>
<ellipse fill="none" style="stroke:var(--fg)" cx="297" cy="-290" rx="27" ry="18"/>
<text text-anchor="middle" x="297" y="-285.8" font-family="Times,serif" font-size="14.00" style="fill:var(--fg)">6</text>
</g>
<!-- 3&#45;&gt;6 -->
<g id="edge2" class="edge">
<title>3-&gt;6</title>
<path fill="none" style="stroke:var(--fg)" d="M140.4742,-244.0962C152.257,-248.5272 166.7983,-253.7928 180,-258 207.0907,-266.6334 238.1512,-275.0615 261.4581,-281.0992"/>
<polygon style="fill:var(--fg); stroke:var(--fg)" points="260.7014,-284.5184 271.2577,-283.6155 262.4424,-277.7383 260.7014,-284.5184"/>
</g>
<!-- 1 -->
<g id="node4" class="node">
<title>1</title>
<ellipse fill="none" style="stroke:var(--fg)" cx="207" cy="-172" rx="27" ry="18"/>
<text text-anchor="middle" x="207" y="-167.8" font-family="Times,serif" font-size="14.00" style="fill:var(--fg)">1</text>
</g>
<!-- 3&#45;&gt;1 -->
<g id="edge3" class="edge">
<title>3-&gt;1</title>
<path fill="none" style="stroke:var(--fg)" d="M135.6481,-221.9464C148.4395,-212.9924 165.617,-200.9681 179.9124,-190.9613"/>
<polygon style="fill:var(--fg); stroke:var(--fg)" points="182.1906,-193.6389 188.3758,-185.0369 178.1764,-187.9043 182.1906,-193.6389"/>
</g>
<!-- 0 -->
<g id="node5" class="node">
<title>0</title>
<ellipse fill="none" style="stroke:var(--fg)" cx="657" cy="-198" rx="27" ry="18"/>
<text text-anchor="middle" x="657" y="-193.8" font-family="Times,serif" font-size="14.00" style="fill:var(--fg)">0</text>
</g>
<!-- 8&#45;&gt;0 -->
<g id="edge13" class="edge">
<title>8-&gt;0</title>
<path fill="none" style="stroke:var(--fg)" d="M504.3707,-238.639C528.3525,-236.9414 563.9687,-233.1887 594,-225 604.7881,-222.0584 616.1447,-217.6384 626.199,-213.2217"/>
<polygon style="fill:var(--fg); stroke:var(--fg)" points="627.7316,-216.3697 635.3785,-209.0365 624.8276,-210.0004 627.7316,-216.3697"/>
</g>
<!-- 9 -->
<g id="node6" class="node">
<title>9</title>
<ellipse fill="none" style="stroke:var(--fg)" cx="567" cy="-198" rx="27" ry="18"/>
<text text-anchor="middle" x="567" y="-193.8" font-family="Times,serif" font-size="14.00" style="fill:var(--fg)">9</text>
</g>
<!-- 8&#45;&gt;9 -->
<g id="edge14" class="edge">
<title>8-&gt;9</title>
<path fill="none" style="stroke:var(--fg)" d="M499.2472,-229.618C510.1728,-224.5194 523.5267,-218.2875 535.482,-212.7084"/>
<polygon style="fill:var(--fg); stroke:var(--fg)" points="537.1151,-215.8087 544.6968,-208.4082 534.1549,-209.4654 537.1151,-215.8087"/>
</g>
<!-- 6&#45;&gt;8 -->
<g id="edge11" class="edge">
<title>6-&gt;8</title>
<path fill="none" style="stroke:var(--fg)" d="M322.1282,-283.2156C345.8363,-276.7937 382.3621,-266.846 414,-258 423.2519,-255.4132 433.2558,-252.5742 442.5086,-249.9309"/>
<polygon style="fill:var(--fg); stroke:var(--fg)" points="443.533,-253.2783 452.1831,-247.1606 441.606,-246.5488 443.533,-253.2783"/>
</g>
<!-- 6&#45;&gt;0 -->
<g id="edge10" class="edge">
<title>6-&gt;0</title>
<path fill="none" style="stroke:var(--fg)" d="M321.2283,-298.1425C332.816,-301.6209 346.9726,-305.2732 360,-307 383.7919,-310.1536 390.1045,-309.237 414,-307 498.3895,-299.0997 521.8118,-288.4169 594,-244 606.776,-236.139 620.2905,-226.4689 631.5126,-218.0268"/>
<polygon style="fill:var(--fg); stroke:var(--fg)" points="633.7683,-220.7082 639.5971,-211.8609 629.5233,-215.1423 633.7683,-220.7082"/>
</g>
<!-- 6&#45;&gt;9 -->
<g id="edge12" class="edge">
<title>6-&gt;9</title>
<path fill="none" style="stroke:var(--fg)" d="M323.93,-292.961C365.2191,-296.2435 445.5191,-297.5713 504,-267 523.2273,-256.9488 539.5604,-238.5657 550.7751,-223.3005"/>
<polygon style="fill:var(--fg); stroke:var(--fg)" points="553.8897,-224.9553 556.7699,-214.7595 548.1601,-220.9338 553.8897,-224.9553"/>
</g>
<!-- 2 -->
<g id="node7" class="node">
<title>2</title>
<ellipse fill="none" style="stroke:var(--fg)" cx="387" cy="-160" rx="27" ry="18"/>
<text text-anchor="middle" x="387" y="-155.8" font-family="Times,serif" font-size="14.00" style="fill:var(--fg)">2</text>
</g>
<!-- 6&#45;&gt;2 -->
<g id="edge9" class="edge">
<title>6-&gt;2</title>
<path fill="none" style="stroke:var(--fg)" d="M308.3986,-273.5354C323.8672,-251.1918 351.643,-211.0712 369.6931,-184.9989"/>
<polygon style="fill:var(--fg); stroke:var(--fg)" points="372.5952,-186.9557 375.4097,-176.7415 366.8399,-182.9712 372.5952,-186.9557"/>
</g>
<!-- 1&#45;&gt;8 -->
<g id="edge8" class="edge">
<title>1-&gt;8</title>
<path fill="none" style="stroke:var(--fg)" d="M232.4009,-178.3973C280.8455,-190.5981 386.5253,-217.2138 441.7671,-231.1265"/>
<polygon style="fill:var(--fg); stroke:var(--fg)" points="440.9179,-234.5219 451.4699,-233.5702 442.6275,-227.7338 440.9179,-234.5219"/>
</g>
<!-- 1&#45;&gt;6 -->
<g id="edge4" class="edge">
<title>1-&gt;6</title>
<path fill="none" style="stroke:var(--fg)" d="M219.5141,-188.4074C234.8282,-208.4859 260.8902,-242.656 278.5158,-265.7651"/>
<polygon style="fill:var(--fg); stroke:var(--fg)" points="275.7447,-267.9033 284.5922,-273.732 281.3106,-263.6581 275.7447,-267.9033"/>
</g>
<!-- 1&#45;&gt;0 -->
<g id="edge5" class="edge">
<title>1-&gt;0</title>
<path fill="none" style="stroke:var(--fg)" d="M222.375,-157C251.75,-130 319,-76 387,-76 387,-76 387,-76 477,-76 546.0256,-76 608.2728,-138.2345 638.213,-173.8045"/>
<polygon style="fill:var(--fg); stroke:var(--fg)" points="635.7268,-176.292 644.7777,-181.7993 641.1367,-171.8498 635.7268,-176.292"/>
</g>
<!-- 1&#45;&gt;9 -->
<g id="edge6" class="edge">
<title>1-&gt;9</title>
<path fill="none" style="stroke:var(--fg)" d="M229.6779,-162.0856C267.7741,-146.6957 347.028,-120.1024 414,-133 459.2623,-141.7167 507.6004,-164.8572 537.5587,-181.031"/>
<polygon style="fill:var(--fg); stroke:var(--fg)" points="536.1635,-184.258 546.6124,-186.0103 539.5368,-178.1244 536.1635,-184.258"/>
</g>
<!-- 1&#45;&gt;2 -->
<g id="edge7" class="edge">
<title>1-&gt;2</title>
<path fill="none" style="stroke:var(--fg)" d="M233.9478,-170.2035C264.7002,-168.1533 315.1902,-164.7873 349.7079,-162.4861"/>
<polygon style="fill:var(--fg); stroke:var(--fg)" points="350.123,-165.9663 359.868,-161.8088 349.6573,-158.9818 350.123,-165.9663"/>
</g>
<!-- 9&#45;&gt;0 -->
<g id="edge15" class="edge">
<title>9-&gt;0</title>
<path fill="none" style="stroke:var(--fg)" d="M594.003,-198C602.0277,-198 610.9665,-198 619.5309,-198"/>
<polygon style="fill:var(--fg); stroke:var(--fg)" points="619.7051,-201.5001 629.705,-198 619.705,-194.5001 619.7051,-201.5001"/>
</g>
<!-- 2&#45;&gt;8 -->
<g id="edge16" class="edge">
<title>2-&gt;8</title>
<path fill="none" style="stroke:var(--fg)" d="M403.5074,-174.6732C417.3358,-186.9652 437.2624,-204.6777 452.8789,-218.559"/>
<polygon style="fill:var(--fg); stroke:var(--fg)" points="450.7979,-221.3921 460.5973,-225.4198 455.4484,-216.1602 450.7979,-221.3921"/>
</g>
<!-- 2&#45;&gt;0 -->
<g id="edge17" class="edge">
<title>2-&gt;0</title>
<path fill="none" style="stroke:var(--fg)" d="M414.2187,-158.4449C454.204,-156.831 530.9122,-156.2955 594,-171 604.9779,-173.5587 616.4575,-177.9207 626.5644,-182.401"/>
<polygon style="fill:var(--fg); stroke:var(--fg)" points="625.2289,-185.6398 635.7727,-186.6779 628.1776,-179.2911 625.2289,-185.6398"/>
</g>
<!-- 2&#45;&gt;9 -->
<g id="edge18" class="edge">
<title>2-&gt;9</title>
<path fill="none" style="stroke:var(--fg)" d="M412.7896,-165.4445C443.9333,-172.0193 496.4815,-183.1128 531.4531,-190.4957"/>
<polygon style="fill:var(--fg); stroke:var(--fg)" points="530.7509,-193.9245 541.2582,-192.5656 532.1969,-187.0754 530.7509,-193.9245"/>
</g>
<!-- 7 -->
<g id="node8" class="node">
<title>7</title>
<ellipse fill="none" style="stroke:var(--fg)" cx="27" cy="-172" rx="27" ry="18"/>
<text text-anchor="middle" x="27" y="-167.8" font-family="Times,serif" font-size="14.00" style="fill:var(--fg)">7</text>
</g>
<!-- 7&#45;&gt;3 -->
<g id="edge20" class="edge">
<title>7-&gt;3</title>
<path fill="none" style="stroke:var(--fg)" d="M45.6481,-185.0536C58.4395,-194.0076 75.617,-206.0319 89.9124,-216.0387"/>
<polygon style="fill:var(--fg); stroke:var(--fg)" points="88.1764,-219.0957 98.3758,-221.9631 92.1906,-213.3611 88.1764,-219.0957"/>
</g>
<!-- 7&#45;&gt;6 -->
<g id="edge19" class="edge">
<title>7-&gt;6</title>
<path fill="none" style="stroke:var(--fg)" d="M34.3307,-189.6915C43.9176,-210.4943 62.7618,-244.411 90,-262 141.8953,-295.5112 216.38,-296.8228 260.4145,-293.9487"/>
<polygon style="fill:var(--fg); stroke:var(--fg)" points="260.6843,-297.4384 270.3906,-293.1912 260.1543,-290.4585 260.6843,-297.4384"/>
</g>
<!-- 7&#45;&gt;1 -->
<g id="edge22" class="edge">
<title>7-&gt;1</title>
<path fill="none" style="stroke:var(--fg)" d="M54.3381,-172C85.1765,-172 135.5008,-172 169.8771,-172"/>
<polygon style="fill:var(--fg); stroke:var(--fg)" points="169.9944,-175.5001 179.9944,-172 169.9943,-168.5001 169.9944,-175.5001"/>
</g>
<!-- 7&#45;&gt;9 -->
<g id="edge21" class="edge">
<title>7-&gt;9</title>
<path fill="none" style="stroke:var(--fg)" d="M34.8805,-154.5612C55.9674,-110.8338 118.1762,0 207,0 207,0 207,0 387,0 478.4049,0 535.6336,-116.9586 557.2269,-171.094"/>
<polygon style="fill:var(--fg); stroke:var(--fg)" points="553.9674,-172.3692 560.8443,-180.4288 560.4944,-169.8398 553.9674,-172.3692"/>
</g>
<!-- 7&#45;&gt;2 -->
<g id="edge23" class="edge">
<title>7-&gt;2</title>
<path fill="none" style="stroke:var(--fg)" d="M52.5358,-166.0828C82.7651,-159.4072 134.7238,-148.9643 180,-145 239.7663,-139.7669 309.3558,-147.6867 350.7068,-153.8636"/>
<polygon style="fill:var(--fg); stroke:var(--fg)" points="350.4216,-157.3609 360.8384,-155.4272 351.4893,-150.4428 350.4216,-157.3609"/>
</g>
</g>
</svg>