<?xml version="1.0" encoding="UTF-8" standalone="no"?><!DOCTYPE svg PUBLIC "-//W3C//DTD SVG 1.1//EN" "http://www.w3.org/Graphics/SVG/1.1/DTD/svg11.dtd"><!-- Generated by graphviz version 2.40.1 (20161225.0304)
 --><!-- Title: unix Pages: 1 --><svg xmlns="http://www.w3.org/2000/svg" xmlns:xlink="http://www.w3.org/1999/xlink" width="332pt" height="67pt" viewBox="0.00 0.00 332.00 67.00">
<g id="graph" class="graph" transform="scale(1 1) rotate(0) translate(4 63)">
<title>p0079-s1-ex-graph</title>
<polygon style="fill:var(--bg)" stroke="transparent" points="-4,4 -4,-63 328,-63 328,4 -4,4"/>
<!-- 1 -->
<g id="node1" class="node">
<title>1</title>
<ellipse fill="none" style="stroke:var(--fg)" cx="27" cy="-18" rx="27" ry="18"/>
<text text-anchor="middle" x="27" y="-13.8" font-family="Times,serif" font-size="14.00" style="fill:var(--fg)">1</text>
</g>
<!-- 4 -->
<g id="node2" class="node">
<title>4</title>
<ellipse fill="none" style="stroke:var(--fg)" cx="117" cy="-18" rx="27" ry="18"/>
<text text-anchor="middle" x="117" y="-13.8" font-family="Times,serif" font-size="14.00" style="fill:var(--fg)">4</text>
</g>
<!-- 1&#45;&gt;4 -->
<g id="edge1" class="edge">
<title>1-&gt;4</title>
<path fill="none" style="stroke:var(--fg)" d="M54.003,-18C62.0277,-18 70.9665,-18 79.5309,-18"/>
<polygon style="fill:var(--fg); stroke:var(--fg)" points="79.7051,-21.5001 89.705,-18 79.705,-14.5001 79.7051,-21.5001"/>
</g>
<!-- 5 -->
<g id="node3" class="node">
<title>5</title>
<ellipse fill="none" style="stroke:var(--fg)" cx="207" cy="-41" rx="27" ry="18"/>
<text text-anchor="middle" x="207" y="-36.8" font-family="Times,serif" font-size="14.00" style="fill:var(--fg)">5</text>
</g>
<!-- 4&#45;&gt;5 -->
<g id="edge2" class="edge">
<title>4-&gt;5</title>
<path fill="none" style="stroke:var(--fg)" d="M142.5497,-24.5294C151.6523,-26.8556 162.0697,-29.5178 171.8371,-32.0139"/>
<polygon style="fill:var(--fg); stroke:var(--fg)" points="171.1427,-35.4489 181.698,-34.5339 172.876,-28.6668 171.1427,-35.4489"/>
</g>
<!-- 6 -->
<g id="node4" class="node">
<title>6</title>
<ellipse fill="none" style="stroke:var(--fg)" cx="297" cy="-18" rx="27" ry="18"/>
<text text-anchor="middle" x="297" y="-13.8" font-family="Times,serif" font-size="14.00" style="fill:var(--fg)">6</text>
</g>
<!-- 4&#45;&gt;6 -->
<g id="edge3" class="edge">
<title>4-&gt;6</title>
<path fill="none" style="stroke:var(--fg)" d="M143.9606,-15.9113C155.1085,-15.1457 168.1697,-14.3752 180,-14 203.9879,-13.2392 210.0121,-13.2392 234,-14 242.4106,-14.2667 251.4433,-14.7333 259.9684,-15.2558"/>
<polygon style="fill:var(--fg); stroke:var(--fg)" points="259.8331,-18.7543 270.0394,-15.9113 260.2878,-11.7691 259.8331,-18.7543"/>
</g>
<!-- 5&#45;&gt;6 -->
<g id="edge4" class="edge">
<title>5-&gt;6</title>
<path fill="none" style="stroke:var(--fg)" d="M232.5497,-34.4706C241.6523,-32.1444 252.0697,-29.4822 261.8371,-26.9861"/>
<polygon style="fill:var(--fg); stroke:var(--fg)" points="262.876,-30.3332 271.698,-24.4661 261.1427,-23.5511 262.876,-30.3332"/>
</g>
</g>
</svg>